<svg width="26" height="25" viewBox="0 0 26 25" fill="none" xmlns="http://www.w3.org/2000/svg">
<path d="M25.3669 18.2516C25.3669 18.2516 26.2858 19.7834 23.5279 22.5419C20.7694 25.2998 19.2376 24.3809 19.2376 24.3809L5.75002 10.8948C5.75002 10.8948 6.42598 8.99349 8.20205 7.21674C9.9788 5.44068 11.8801 4.76471 11.8801 4.76471L25.3669 18.2516Z" fill="#D99E82"/>
<path d="M10.0418 6.60374C10.7191 7.28109 13.1705 10.8304 12.4938 11.5078C11.8165 12.1845 8.2671 9.73312 7.58974 9.05577L1.45967 2.92569C1.14962 2.59749 0.979764 2.16133 0.986183 1.70989C0.992602 1.25844 1.17479 0.82729 1.49405 0.508038C1.8133 0.188785 2.24445 0.00659477 2.69589 0.000175538C3.14734 -0.00624369 3.5835 0.163614 3.9117 0.47366L10.0418 6.60374Z" fill="#C1694F"/>
<path d="M1.45897 2.92569L3.91169 0.473663L7.58974 4.15171L5.13771 6.60374L1.45897 2.92569Z" fill="#292F33"/>
<path d="M13.9246 24.7006C15.8352 24.7006 17.384 23.1518 17.384 21.2412C17.384 19.3306 15.8352 17.7818 13.9246 17.7818C12.014 17.7818 10.4652 19.3306 10.4652 21.2412C10.4652 23.1518 12.014 24.7006 13.9246 24.7006Z" fill="#BE1931"/>
<path d="M13.9246 24.7006C13.7411 24.7006 13.5651 24.6277 13.4354 24.498C13.3056 24.3682 13.2327 24.1922 13.2327 24.0087V18.4737C13.2327 18.2902 13.3056 18.1142 13.4354 17.9844C13.5651 17.8547 13.7411 17.7818 13.9246 17.7818C14.1081 17.7818 14.2841 17.8547 14.4138 17.9844C14.5436 18.1142 14.6165 18.2902 14.6165 18.4737V24.0087C14.6165 24.1922 14.5436 24.3682 14.4138 24.498C14.2841 24.6277 14.1081 24.7006 13.9246 24.7006Z" fill="#662113"/>
</svg>
