<svg width="29" height="29" viewBox="0 0 29 29" fill="none" xmlns="http://www.w3.org/2000/svg">
<path d="M28.3292 21.2072C28.3292 21.2072 29.3968 22.9871 26.1923 26.1924C22.9871 29.3968 21.2072 28.3292 21.2072 28.3292L5.53549 12.6591C5.53549 12.6591 6.32093 10.4499 8.3846 8.38543C10.4491 6.32175 12.6583 5.53632 12.6583 5.53632L28.3292 21.2072Z" fill="#D99E82"/>
<path d="M10.5222 7.67314C11.3093 8.46018 14.1576 12.5843 13.3714 13.3714C12.5843 14.1576 8.46018 11.3093 7.67314 10.5222L0.550365 3.39947C0.19011 3.01813 -0.00725479 2.51134 0.000203965 1.98678C0.00766272 1.46223 0.219357 0.961261 0.590309 0.590309C0.961261 0.219357 1.46223 0.00766272 1.98678 0.000203965C2.51134 -0.00725479 3.01813 0.19011 3.39947 0.550365L10.5222 7.67314Z" fill="#C1694F"/>
<path d="M0.549561 3.39949L3.39947 0.550385L7.67314 4.82405L4.82403 7.67316L0.549561 3.39949Z" fill="#292F33"/>
<path d="M15.0339 28.7006C17.2539 28.7006 19.0535 26.901 19.0535 24.681C19.0535 22.461 17.2539 20.6614 15.0339 20.6614C12.8139 20.6614 11.0143 22.461 11.0143 24.681C11.0143 26.901 12.8139 28.7006 15.0339 28.7006Z" fill="#BE1931"/>
<path d="M15.0339 28.7006C14.8207 28.7006 14.6162 28.6159 14.4654 28.4652C14.3146 28.3144 14.2299 28.1099 14.2299 27.8967V21.4653C14.2299 21.2521 14.3146 21.0476 14.4654 20.8968C14.6162 20.7461 14.8207 20.6614 15.0339 20.6614C15.2471 20.6614 15.4516 20.7461 15.6023 20.8968C15.7531 21.0476 15.8378 21.2521 15.8378 21.4653V27.8967C15.8378 28.1099 15.7531 28.3144 15.6023 28.4652C15.4516 28.6159 15.2471 28.7006 15.0339 28.7006Z" fill="#662113"/>
</svg>
