<?xml version="1.0" standalone="no"?>
<!DOCTYPE svg PUBLIC "-//W3C//DTD SVG 20010904//EN"
 "http://www.w3.org/TR/2001/REC-SVG-20010904/DTD/svg10.dtd">
<svg version="1.0" xmlns="http://www.w3.org/2000/svg"
 width="182.000000pt" height="148.000000pt" viewBox="0 0 182.000000 148.000000"
 preserveAspectRatio="xMidYMid meet">

<g transform="translate(0.000000,148.000000) scale(0.100000,-0.100000)"
fill="#000000" stroke="none">
<path d="M1016 1298 c-25 -35 -20 -40 34 -36 43 3 50 0 60 -20 5 -13 8 -27 5
-32 -6 -10 4 -40 14 -40 6 0 12 38 15 93 1 25 -4 31 -39 43 -55 19 -71 18 -89
-8z"/>
<path d="M1065 1200 c3 -5 8 -10 11 -10 2 0 4 5 4 10 0 6 -5 10 -11 10 -5 0
-7 -4 -4 -10z"/>
<path d="M701 1131 c-18 -15 -31 -35 -31 -48 0 -21 2 -21 28 -7 37 19 78 18
86 -3 6 -15 8 -15 16 -3 5 8 5 19 0 25 -8 10 -10 16 -10 33 0 4 -13 12 -28 18
-25 10 -33 8 -61 -15z"/>
<path d="M1140 1109 c-19 -4 -38 -5 -42 -3 -5 3 -8 -2 -8 -10 0 -23 -38 -39
-76 -32 -24 5 -31 11 -27 21 4 11 -2 15 -19 15 -30 0 -91 -20 -84 -27 3 -3 -1
-14 -8 -25 -12 -16 -12 -24 -1 -46 15 -28 11 -44 -8 -36 -9 3 -13 -5 -12 -23
0 -21 6 -29 22 -31 26 -4 32 -24 22 -72 -5 -22 -4 -40 4 -49 8 -10 8 -13 1 -8
-15 8 -26 -30 -18 -60 4 -14 0 -29 -10 -38 -25 -25 -19 -35 14 -23 22 7 49 7
95 -2 57 -11 88 -12 193 -9 18 1 22 5 16 18 -4 9 -9 57 -12 106 -3 74 0 100
18 147 20 55 23 57 76 75 l56 18 3 52 2 52 -81 -2 c-45 0 -97 -4 -116 -8z"/>
<path d="M704 969 c-4 -7 -3 -9 4 -5 5 3 13 0 15 -6 4 -9 6 -10 6 -1 1 17 -16
25 -25 12z"/>
<path d="M789 933 c-13 -16 -12 -17 4 -4 9 7 17 15 17 17 0 8 -8 3 -21 -13z"/>
<path d="M630 890 c0 -5 7 -7 15 -4 8 4 15 8 15 10 0 2 -7 4 -15 4 -8 0 -15
-4 -15 -10z"/>
<path d="M500 840 c-9 -6 -10 -10 -3 -10 6 0 15 5 18 10 8 12 4 12 -15 0z"/>
<path d="M650 761 c0 -6 4 -13 10 -16 6 -3 7 1 4 9 -7 18 -14 21 -14 7z"/>
<path d="M693 633 c-13 -2 -23 -8 -23 -13 0 -5 7 -7 15 -4 13 5 20 -9 17 -37
0 -3 9 -16 21 -30 12 -13 19 -20 15 -15 -12 15 -9 28 4 20 7 -4 8 -3 4 4 -9
15 18 16 45 2 15 -8 19 -7 19 4 0 8 3 21 6 29 10 26 -69 52 -123 40z"/>
<path d="M791 415 c-1 -56 4 -108 12 -137 8 -26 12 -49 8 -51 -3 -2 1 -2 9 0
8 2 27 -11 43 -29 l28 -33 -2 30 c-4 93 1 125 19 125 10 0 22 -3 26 -7 10 -10
36 -13 36 -4 0 4 -11 13 -25 19 -21 10 -24 16 -19 39 4 16 11 37 17 47 8 16 7
18 -9 12 -35 -14 -39 -11 -37 26 2 33 -1 38 -30 46 -70 21 -73 18 -76 -83z"/>
<path d="M760 460 c-9 -6 -10 -10 -3 -10 6 0 15 5 18 10 8 12 4 12 -15 0z"/>
<path d="M730 440 c0 -6 7 -10 15 -10 8 0 15 2 15 4 0 2 -7 6 -15 10 -8 3 -15
1 -15 -4z"/>
<path d="M367 406 c-28 -26 -42 -63 -34 -93 3 -11 5 -5 6 13 1 35 33 81 65 94
15 6 16 9 5 9 -9 1 -28 -10 -42 -23z"/>
<path d="M440 421 c0 -10 42 -23 49 -15 7 6 -20 24 -36 24 -7 0 -13 -4 -13 -9z"/>
<path d="M1368 395 c3 -25 -1 -36 -18 -48 l-23 -16 34 -20 c19 -12 38 -21 43
-21 5 0 29 -18 53 -41 36 -33 47 -38 59 -29 8 7 14 21 14 33 0 29 -94 138
-140 162 -25 13 -26 13 -22 -20z"/>
<path d="M371 372 c-6 -11 -6 -24 0 -35 8 -14 13 -15 29 -4 27 16 27 57 0 57
-10 0 -24 -8 -29 -18z"/>
<path d="M483 353 c-7 -3 -13 -18 -13 -34 0 -24 4 -29 24 -29 17 0 25 7 29 25
5 27 -16 46 -40 38z"/>
<path d="M384 265 c-5 -13 -9 -13 -23 -3 -14 12 -14 11 -2 -4 7 -10 17 -15 22
-12 5 3 9 0 9 -5 0 -6 14 -11 30 -11 23 0 30 5 30 19 0 31 -56 44 -66 16z"/>
<path d="M725 190 c-9 -15 18 -50 45 -57 14 -3 30 -10 37 -15 6 -5 35 -11 65
-13 l53 -4 -48 14 c-27 7 -50 15 -51 17 -1 2 -13 18 -25 36 -22 32 -63 44 -76
22z"/>
<path d="M1628 153 c7 -3 16 -2 19 1 4 3 -2 6 -13 5 -11 0 -14 -3 -6 -6z"/>
<path d="M618 113 c6 -2 18 -2 25 0 6 3 1 5 -13 5 -14 0 -19 -2 -12 -5z"/>
<path d="M668 113 c7 -3 16 -2 19 1 4 3 -2 6 -13 5 -11 0 -14 -3 -6 -6z"/>
</g>
</svg>
