<svg width="281" height="291" viewBox="0 0 281 291" fill="none" xmlns="http://www.w3.org/2000/svg">
<path d="M21.5071 265.5C21.4143 264.34 20.9793 263.435 20.2021 262.786C19.4364 262.136 18.2706 261.811 16.7045 261.811C15.7069 261.811 14.8891 261.933 14.2511 262.176C13.6246 262.408 13.1606 262.728 12.859 263.134C12.5574 263.54 12.4008 264.004 12.3892 264.526C12.366 264.955 12.4414 265.343 12.6154 265.691C12.801 266.028 13.091 266.335 13.4854 266.614C13.8799 266.88 14.3845 267.124 14.9993 267.344C15.6141 267.565 16.3449 267.762 17.1918 267.936L20.1151 268.562C22.0871 268.98 23.775 269.531 25.1786 270.216C26.5823 270.9 27.7307 271.706 28.6239 272.634C29.5172 273.551 30.1726 274.583 30.5902 275.732C31.0194 276.88 31.2398 278.133 31.2514 279.49C31.2398 281.833 30.654 283.817 29.494 285.441C28.3339 287.065 26.6751 288.301 24.5174 289.147C22.3713 289.994 19.7902 290.418 16.7741 290.418C13.6768 290.418 10.974 289.959 8.66548 289.043C6.36861 288.127 4.58215 286.717 3.30611 284.815C2.04167 282.901 1.40365 280.453 1.39205 277.472H10.5795C10.6375 278.562 10.9102 279.478 11.3974 280.221C11.8846 280.963 12.569 281.526 13.4506 281.909C14.3439 282.292 15.4053 282.483 16.6349 282.483C17.6674 282.483 18.5316 282.355 19.2276 282.1C19.9237 281.845 20.4515 281.491 20.8111 281.039C21.1707 280.586 21.3563 280.07 21.3679 279.49C21.3563 278.945 21.1765 278.469 20.8285 278.063C20.4921 277.646 19.9353 277.274 19.158 276.95C18.3808 276.613 17.331 276.3 16.0085 276.01L12.4588 275.244C9.3035 274.56 6.81522 273.417 4.99396 271.816C3.1843 270.204 2.28527 268.006 2.29688 265.222C2.28527 262.96 2.88849 260.982 4.10653 259.288C5.33617 257.583 7.03563 256.254 9.2049 255.303C11.3858 254.352 13.8857 253.876 16.7045 253.876C19.5814 253.876 22.0697 254.358 24.1694 255.321C26.2691 256.283 27.8873 257.641 29.0241 259.392C30.1726 261.132 30.7526 263.168 30.7642 265.5H21.5071ZM34.9316 290V254.364H50.3137C52.9586 254.364 55.2729 254.886 57.2566 255.93C59.2402 256.974 60.7831 258.441 61.8851 260.332C62.9872 262.223 63.5382 264.433 63.5382 266.962C63.5382 269.514 62.9698 271.724 61.8329 273.591C60.7077 275.459 59.1242 276.897 57.0826 277.907C55.0525 278.916 52.6802 279.42 49.9657 279.42H40.7782V271.903H48.0169C49.1537 271.903 50.1223 271.706 50.9228 271.312C51.7348 270.906 52.3554 270.332 52.7846 269.589C53.2254 268.847 53.4458 267.971 53.4458 266.962C53.4458 265.941 53.2254 265.071 52.7846 264.352C52.3554 263.621 51.7348 263.064 50.9228 262.681C50.1223 262.287 49.1537 262.089 48.0169 262.089H44.6064V290H34.9316ZM101.611 272.182C101.611 276.149 100.839 279.496 99.2963 282.222C97.7535 284.936 95.6712 286.996 93.0495 288.399C90.4279 289.791 87.5046 290.487 84.2797 290.487C81.0315 290.487 78.0967 289.785 75.475 288.382C72.8649 286.967 70.7884 284.902 69.2456 282.187C67.7143 279.461 66.9487 276.126 66.9487 272.182C66.9487 268.214 67.7143 264.874 69.2456 262.159C70.7884 259.433 72.8649 257.374 75.475 255.982C78.0967 254.578 81.0315 253.876 84.2797 253.876C87.5046 253.876 90.4279 254.578 93.0495 255.982C95.6712 257.374 97.7535 259.433 99.2963 262.159C100.839 264.874 101.611 268.214 101.611 272.182ZM91.6575 272.182C91.6575 270.047 91.3733 268.249 90.8049 266.788C90.248 265.314 89.4186 264.201 88.3166 263.447C87.2261 262.681 85.8805 262.298 84.2797 262.298C82.6788 262.298 81.3274 262.681 80.2253 263.447C79.1349 264.201 78.3055 265.314 77.737 266.788C77.1802 268.249 76.9018 270.047 76.9018 272.182C76.9018 274.316 77.1802 276.12 77.737 277.593C78.3055 279.055 79.1349 280.169 80.2253 280.934C81.3274 281.688 82.6788 282.065 84.2797 282.065C85.8805 282.065 87.2261 281.688 88.3166 280.934C89.4186 280.169 90.248 279.055 90.8049 277.593C91.3733 276.12 91.6575 274.316 91.6575 272.182ZM106.087 290V254.364H121.469C124.114 254.364 126.428 254.845 128.412 255.808C130.396 256.771 131.938 258.157 133.04 259.967C134.142 261.776 134.693 263.946 134.693 266.474C134.693 269.027 134.125 271.178 132.988 272.93C131.863 274.682 130.28 276.004 128.238 276.897C126.208 277.791 123.835 278.237 121.121 278.237H111.934V270.72H119.172C120.309 270.72 121.278 270.581 122.078 270.303C122.89 270.013 123.511 269.554 123.94 268.928C124.381 268.301 124.601 267.484 124.601 266.474C124.601 265.454 124.381 264.624 123.94 263.986C123.511 263.337 122.89 262.861 122.078 262.559C121.278 262.246 120.309 262.089 119.172 262.089H115.762V290H106.087ZM126.968 273.643L135.877 290H125.367L116.666 273.643H126.968ZM137.843 262.159V254.364H168.816V262.159H158.097V290H148.562V262.159H137.843ZM203.291 254.364V290H195.217L182.341 271.277H182.132V290H172.457V254.364H180.67L193.338 273.017H193.616V254.364H203.291ZM207.867 290V254.364H233.55V262.159H217.542V268.284H232.228V276.08H217.542V282.205H233.481V290H207.867ZM238.349 290V254.364H253.731C256.376 254.364 258.69 254.845 260.674 255.808C262.657 256.771 264.2 258.157 265.302 259.967C266.404 261.776 266.955 263.946 266.955 266.474C266.955 269.027 266.387 271.178 265.25 272.93C264.125 274.682 262.541 276.004 260.5 276.897C258.469 277.791 256.097 278.237 253.383 278.237H244.195V270.72H251.434C252.571 270.72 253.539 270.581 254.34 270.303C255.152 270.013 255.772 269.554 256.202 268.928C256.642 268.301 256.863 267.484 256.863 266.474C256.863 265.454 256.642 264.624 256.202 263.986C255.772 263.337 255.152 262.861 254.34 262.559C253.539 262.246 252.571 262.089 251.434 262.089H248.023V290H238.349ZM259.229 273.643L268.138 290H257.628L248.928 273.643H259.229Z" fill="#54B77B"/>
<circle cx="224.144" cy="43.1303" r="21.5" transform="rotate(7.5 224.144 43.1303)" fill="#54B77B"/>
<rect x="185.678" y="50.8812" width="64.6221" height="86.4826" transform="rotate(43.5 185.678 50.8812)" fill="#54B77B"/>
<path d="M206.604 98.7842C208.505 96.7812 211.669 96.6983 213.673 98.5991L222.623 107.093L172.426 159.989L159.849 148.054L206.604 98.7842Z" fill="white"/>
<path d="M223.136 92.9248L264.777 98.4069C268.61 98.9115 271.308 102.428 270.803 106.261C270.299 110.094 266.783 112.792 262.95 112.287L223.074 107.037C222.099 106.909 221.413 106.015 221.541 105.04L223.136 92.9248Z" fill="#54B77B"/>
<path d="M153.382 53.3616C152.359 55.3197 149.943 56.0778 147.985 55.0549L114.209 37.4106C110.834 35.6479 109.528 31.4837 111.291 28.1095C113.053 24.7353 117.218 23.4289 120.592 25.1915L156.336 43.8638C157.207 44.3189 157.544 45.3943 157.089 46.2656L153.382 53.3616Z" fill="#54B77B"/>
<path d="M178.719 45.6199C179.1 45.2193 179.733 45.2027 180.133 45.5829L186.581 51.7015L173.173 65.8303L166 59.0234L178.719 45.6199Z" fill="#54B77B"/>
<path d="M165.12 58.9047C166.903 57.0249 169.873 56.9472 171.753 58.731C173.633 60.5148 173.711 63.4847 171.927 65.3644L171.389 65.9311L164.582 59.4713L165.12 58.9047Z" fill="white"/>
<path d="M141.672 40.3148L179.347 45.2748C179.895 45.3469 180.28 45.8492 180.208 46.3968L178.497 59.394L150.737 55.7393C144.713 54.9463 140.473 49.4208 141.266 43.3976L141.672 40.3148Z" fill="#54B77B"/>
<path d="M46.4875 172.912C45.1137 168.419 47.6428 163.662 52.1363 162.289L157.747 130L162.138 144.36C162.461 145.416 161.866 146.535 160.81 146.857L57.1114 178.561C52.6178 179.935 47.8613 177.406 46.4875 172.912Z" fill="#54B77B"/>
<path d="M117.939 146.677C111.171 140.171 110.959 129.409 117.465 122.64L130.649 108.927L151.361 128.838L127.089 154.086C126.706 154.484 126.073 154.497 125.675 154.114L117.939 146.677Z" fill="#54B77B"/>
<path d="M108 153L123 153L123 185.5C123 189.642 119.642 193 115.5 193C111.358 193 108 189.642 108 185.5L108 153Z" fill="#54B77B"/>
<path d="M87 143.881L148.345 125.126C150.379 124.504 152.533 125.649 153.155 127.684C153.734 129.577 152.668 131.58 150.776 132.159L89.1741 150.992L87 143.881Z" fill="white"/>
<path d="M76.8901 172.522L138.177 153.784C140.243 153.153 142.431 154.316 143.063 156.382C143.651 158.305 142.569 160.34 140.646 160.927L79.0983 179.744L76.8901 172.522Z" fill="white"/>
<circle cx="199.852" cy="208.491" r="28.9382" fill="#54B77B"/>
<rect x="191.626" y="180.681" width="3" height="13.4869" transform="rotate(-34.085 191.626 180.681)" fill="white"/>
<rect x="201.191" y="191.934" width="3" height="13.6803" transform="rotate(-142.176 201.191 191.934)" fill="white"/>
<rect x="201.821" y="197.289" width="3" height="7" transform="rotate(-180 201.821 197.289)" fill="white"/>
<rect x="224.245" y="226.39" width="3" height="13.4869" transform="rotate(107.779 224.245 226.39)" fill="white"/>
<rect x="209.772" y="223.445" width="3" height="13.6803" transform="rotate(-0.312219 209.772 223.445)" fill="white"/>
<rect x="205.97" y="219.623" width="3" height="7" transform="rotate(-38.1365 205.97 219.623)" fill="white"/>
<rect x="191.621" y="238.113" width="3" height="13.4869" transform="rotate(-179.918 191.621 238.113)" fill="white"/>
<rect x="190.027" y="223.43" width="3" height="13.6803" transform="rotate(71.9911 190.027 223.43)" fill="white"/>
<rect x="192.512" y="218.646" width="3" height="7" transform="rotate(34.1668 192.512 218.646)" fill="white"/>
<rect x="170.615" y="209.189" width="3" height="13.4869" transform="rotate(-107.975 170.615 209.189)" fill="white"/>
<rect x="184.081" y="203.122" width="3" height="13.6803" transform="rotate(143.934 184.081 203.122)" fill="white"/>
<rect x="189.399" y="204.003" width="3" height="7" transform="rotate(106.11 189.399 204.003)" fill="white"/>
<rect x="225.464" y="191.853" width="3" height="13.4869" transform="rotate(36.2903 225.464 191.853)" fill="white"/>
<rect x="218.077" y="204.642" width="3" height="13.6803" transform="rotate(-71.8004 218.077 204.642)" fill="white"/>
<rect x="213.246" y="207.034" width="3" height="7" transform="rotate(-109.625 213.246 207.034)" fill="white"/>
<path d="M200.766 195.393L214.092 205.075L209.002 220.741H192.53L187.439 205.075L200.766 195.393Z" fill="white"/>
<path d="M200.821 199.288L210.332 206.198L206.699 217.379H194.944L191.311 206.198L200.821 199.288Z" fill="#54B77B"/>
<rect x="41" y="231" width="49" height="7" rx="3.5" fill="#54B77B"/>
<rect x="65" y="214" width="38" height="7" rx="3.5" fill="#54B77B"/>
</svg>
