<?xml version="1.0" standalone="no"?>
<!DOCTYPE svg PUBLIC "-//W3C//DTD SVG 20010904//EN"
 "http://www.w3.org/TR/2001/REC-SVG-20010904/DTD/svg10.dtd">
<svg version="1.0" xmlns="http://www.w3.org/2000/svg"
 width="840.000000pt" height="733.000000pt" viewBox="0 0 840.000000 733.000000"
 preserveAspectRatio="xMidYMid meet">

<g transform="translate(0.000000,733.000000) scale(0.100000,-0.100000)"
fill="#000000" stroke="none">
<path d="M3005 6923 c-120 -27 -191 -81 -226 -171 -17 -43 -23 -85 -26 -172
-2 -63 -9 -131 -15 -151 -9 -31 -7 -44 15 -95 14 -33 31 -88 37 -124 14 -74
29 -108 65 -144 43 -43 34 -58 -57 -94 -112 -44 -187 -62 -288 -69 -96 -7
-124 -18 -195 -77 -27 -24 -71 -56 -96 -73 -25 -17 -62 -51 -83 -75 -79 -90
-99 -107 -165 -142 -71 -37 -230 -81 -263 -73 -10 3 -18 2 -18 -3 0 -4 -69
-42 -152 -83 -84 -42 -241 -126 -348 -188 -107 -61 -237 -131 -289 -155 -51
-24 -119 -60 -151 -79 -32 -19 -64 -35 -71 -35 -8 0 -46 -18 -84 -41 -39 -22
-101 -49 -140 -58 -93 -24 -120 -39 -188 -109 -54 -54 -57 -60 -42 -75 14 -15
14 -18 -5 -37 -24 -24 -25 -39 -4 -47 18 -7 42 5 108 52 69 50 78 45 44 -22
-23 -45 -28 -68 -26 -107 4 -67 22 -69 51 -4 29 63 56 90 117 116 51 21 120
37 120 26 0 -4 -20 -29 -45 -55 -29 -31 -45 -57 -45 -74 0 -45 26 -40 86 14
30 28 60 51 64 51 18 0 82 64 99 99 10 20 26 60 35 89 28 84 96 121 286 158
106 20 390 98 496 135 112 39 226 96 289 144 26 20 73 46 104 56 31 11 110 45
176 77 105 50 128 57 181 57 78 0 95 -14 145 -120 90 -192 132 -411 133 -697
0 -108 3 -195 5 -193 11 12 31 130 31 190 1 58 3 66 12 45 6 -14 11 -59 13
-101 2 -42 6 -86 9 -97 4 -11 -2 -46 -14 -78 -11 -32 -20 -66 -20 -76 0 -12
-8 -18 -21 -18 -17 0 -19 -3 -11 -13 9 -10 0 -22 -39 -51 -27 -20 -57 -52 -66
-71 -15 -31 -15 -38 -1 -74 14 -35 14 -42 1 -61 -8 -11 -16 -32 -17 -46 -2
-14 -18 -39 -35 -55 -28 -25 -32 -35 -27 -62 4 -28 1 -35 -27 -52 -35 -22 -46
-57 -26 -81 10 -12 7 -21 -18 -47 -49 -53 -89 -109 -118 -167 -24 -47 -29 -72
-36 -175 -4 -66 -16 -165 -28 -220 -11 -55 -29 -192 -41 -305 -11 -113 -27
-234 -35 -270 -7 -36 -12 -66 -10 -68 12 -12 155 -53 215 -62 124 -18 297 29
240 65 -19 12 -10 63 25 131 38 74 111 170 231 302 69 76 78 82 114 82 30 0
43 6 59 26 12 15 21 33 21 40 0 8 14 26 31 41 17 16 42 51 54 78 13 28 29 59
37 69 14 17 15 14 21 -43 10 -89 39 -148 104 -208 42 -39 54 -57 50 -72 -6
-24 15 -44 40 -39 20 5 64 -14 81 -34 6 -8 16 -54 22 -103 27 -220 79 -399
149 -517 21 -35 41 -75 45 -90 4 -18 32 -48 77 -84 40 -31 79 -70 88 -87 51
-94 122 -134 216 -122 46 5 65 14 97 43 68 62 83 101 83 223 0 100 -2 108 -30
155 -27 43 -49 63 -109 99 -12 7 -22 39 -32 105 -16 96 -15 145 4 345 15 157
22 342 23 640 2 218 -1 267 -14 305 -9 25 -17 65 -17 90 0 25 -9 64 -19 87
-13 28 -19 63 -19 106 1 51 -4 76 -25 119 -15 30 -27 71 -27 90 0 20 -10 50
-24 70 -12 19 -25 55 -28 81 -6 52 6 70 55 82 15 4 53 30 83 57 52 48 56 50
73 34 15 -13 20 -38 25 -124 13 -204 49 -407 113 -636 l36 -129 -12 -106 c-13
-116 -2 -212 39 -342 11 -35 20 -71 20 -79 0 -8 -21 -61 -46 -117 -77 -174
-71 -236 38 -364 51 -60 55 -70 72 -154 10 -50 26 -115 35 -145 10 -30 18 -71
19 -90 1 -56 114 -292 183 -385 48 -64 77 -130 85 -192 10 -76 27 -96 131
-166 130 -86 159 -100 181 -88 33 18 169 167 191 208 31 62 36 118 16 188 -9
33 -22 83 -29 111 l-11 51 -135 91 c-118 79 -290 217 -385 309 -24 23 -73 62
-114 90 -2 2 20 29 50 60 30 32 70 80 88 106 37 54 91 168 91 192 0 13 7 15
38 9 20 -4 47 -14 59 -22 14 -9 33 -12 49 -8 60 15 241 -144 351 -310 31 -46
58 -82 61 -80 10 11 -13 71 -44 112 l-35 45 22 36 c15 23 23 57 27 103 l4 67
85 7 c96 7 143 23 167 57 19 28 22 167 5 265 -10 60 -9 65 26 160 70 185 76
236 82 639 5 362 -8 650 -39 840 -7 39 -12 133 -12 210 -1 168 9 198 75 215
34 9 44 18 59 53 10 23 21 63 25 90 l7 47 52 0 c28 0 66 -4 84 -9 17 -5 32 -6
32 -1 0 22 89 21 166 -1 91 -26 129 -27 579 -17 255 6 310 5 369 -9 82 -18
192 -13 250 11 26 11 69 16 132 16 127 0 175 20 152 63 -11 22 3 37 35 37 17
0 23 26 9 46 -4 7 -42 11 -102 10 -93 -1 -97 0 -196 47 -103 48 -128 55 -139
37 -9 -15 -57 -12 -98 5 -54 22 -90 19 -116 -11 -20 -23 -28 -25 -66 -19 -24
3 -106 24 -182 46 -277 81 -464 107 -566 78 -30 -8 -64 -5 -176 16 -76 14
-153 30 -171 35 -39 11 -75 -5 -113 -49 -59 -71 -63 -184 -8 -272 l32 -52 -41
6 c-55 7 -86 29 -111 79 -26 52 -20 128 18 206 20 43 35 59 79 83 30 17 54 34
54 38 0 3 -7 16 -15 28 -21 30 -103 53 -190 53 -49 0 -89 7 -130 23 -56 20
-76 22 -291 22 l-231 0 -29 -54 c-40 -76 -120 -155 -187 -185 -31 -13 -76 -38
-101 -55 -25 -17 -51 -31 -59 -31 -34 0 -135 89 -182 161 -27 41 -50 76 -52
78 -7 9 -170 -41 -209 -64 -23 -14 -52 -41 -64 -61 l-22 -35 32 -70 c18 -39
34 -89 36 -112 l4 -42 -19 52 c-34 90 -84 175 -139 235 -66 70 -99 92 -188
119 -54 17 -76 30 -104 61 -19 22 -83 90 -142 151 -108 111 -122 135 -94 166
53 59 94 198 67 227 -5 5 -11 61 -13 125 -4 107 -7 122 -37 183 -48 98 -128
158 -254 192 -51 13 -102 16 -142 7z m431 -1012 c24 -36 50 -56 122 -95 209
-113 298 -225 315 -398 2 -26 1 -45 -4 -42 -5 3 -9 15 -9 28 0 41 -59 144
-109 189 -59 52 -149 101 -216 118 -82 19 -143 58 -172 106 -24 41 -24 45 -10
76 8 17 18 48 22 67 7 31 9 33 19 16 6 -10 25 -39 42 -65z m-527 -87 c1 -22
-21 -46 -54 -59 -11 -4 -79 -11 -152 -15 -107 -6 -140 -12 -179 -31 -68 -32
-130 -97 -149 -156 l-15 -48 5 63 c12 158 96 219 352 257 114 17 152 33 161
69 5 18 8 15 18 -19 7 -22 13 -49 13 -61z m822 -736 c-17 -35 -44 -88 -60
-118 -46 -87 -46 -92 -6 -133 41 -42 42 -55 14 -114 -12 -25 -19 -55 -16 -69
4 -23 3 -24 -11 -10 -13 13 -14 21 -4 53 11 35 10 43 -25 110 -50 99 -49 103
102 310 17 22 32 39 34 37 2 -1 -11 -31 -28 -66z m-1083 -195 c3 -44 1 -63 -7
-63 -6 0 -11 12 -11 28 0 15 -11 69 -25 120 -14 51 -25 96 -24 100 0 4 14 -22
31 -58 20 -42 32 -87 36 -127z m1201 35 l29 -63 -21 -22 c-28 -31 -37 -29 -37
11 0 18 -7 53 -15 76 -19 53 -19 60 0 60 10 0 27 -25 44 -62z m-98 -425 c52
-47 70 -82 79 -160 7 -55 14 -70 49 -108 55 -60 56 -98 4 -123 l-38 -17 -1
-98 c-1 -94 -3 -100 -33 -140 -17 -23 -41 -60 -53 -82 -34 -65 -33 -21 2 50
31 64 32 68 25 155 l-7 89 41 40 c23 22 41 44 41 49 0 14 -23 32 -42 32 -34 0
-48 40 -45 131 2 87 -2 102 -53 184 -28 45 -20 44 31 -2z m-1012 -327 c7 -9
10 -27 6 -48 -5 -27 -2 -37 19 -57 23 -22 26 -32 26 -95 -1 -65 -2 -69 -15
-52 -8 11 -15 30 -15 41 0 39 -20 82 -44 95 -22 11 -24 18 -22 80 1 59 3 67
17 60 9 -5 21 -16 28 -24z m2574 -655 c-116 -64 -184 -125 -242 -218 -35 -56
-112 -133 -134 -133 -7 0 -18 5 -25 12 -9 9 -3 17 26 33 23 13 57 49 89 96 29
42 80 102 114 133 72 67 187 130 207 113 10 -8 2 -16 -35 -36z"/>
<path d="M4490 6733 c-55 -11 -152 -64 -198 -107 -64 -60 -100 -136 -114 -239
-10 -79 -9 -85 21 -175 17 -51 31 -112 31 -136 0 -29 10 -63 30 -100 16 -31
32 -72 36 -91 3 -19 16 -47 27 -62 12 -15 31 -47 43 -73 25 -54 70 -100 129
-131 l43 -23 39 25 c21 14 65 38 97 54 127 64 210 176 186 250 -15 45 -8 66
48 149 45 66 47 71 46 135 -1 36 -2 91 -3 121 -4 242 -142 400 -356 406 -44 1
-91 0 -105 -3z"/>
<path d="M2612 4265 c0 -16 2 -22 5 -12 2 9 2 23 0 30 -3 6 -5 -1 -5 -18z"/>
<path d="M2080 2333 c0 -18 38 -44 85 -59 72 -21 220 -29 290 -14 70 14 135
39 135 51 0 4 -20 -1 -45 -12 -122 -54 -374 -38 -447 28 -10 9 -18 12 -18 6z"/>
<path d="M2070 2280 c0 -45 166 -87 300 -76 91 8 165 24 203 43 49 25 22 26
-40 3 -43 -17 -87 -24 -168 -28 -128 -5 -208 8 -259 43 -20 14 -36 20 -36 15z"/>
<path d="M2050 2232 c0 -16 35 -41 80 -59 68 -26 334 -24 409 3 30 10 56 24
58 30 2 7 -20 3 -54 -9 -49 -17 -83 -21 -213 -21 -163 -1 -212 8 -245 44 -19
21 -35 26 -35 12z"/>
<path d="M4235 2078 c7 -117 -22 -230 -77 -299 -18 -22 -67 -46 -111 -54 -60
-12 -105 2 -155 48 -43 39 -49 36 -13 -7 9 -10 14 -21 11 -23 -13 -15 53 -47
104 -51 76 -6 144 13 185 51 l34 32 -22 -33 c-12 -18 -36 -39 -53 -48 -48 -25
-136 -29 -182 -10 -22 9 -41 14 -44 11 -3 -2 12 -12 34 -21 48 -20 154 -15
202 10 66 34 118 149 125 279 4 53 3 60 -3 27 -6 -40 -7 -37 -8 33 -1 45 -6
76 -11 72 -5 -3 -12 7 -15 22 -2 16 -3 -2 -1 -39z m-30 -271 c-34 -72 -100
-108 -195 -106 l-45 2 56 7 c81 10 129 37 164 91 35 53 44 56 20 6z m-249 -95
c-5 -4 -66 26 -66 33 0 3 16 -3 35 -12 19 -9 33 -18 31 -21z"/>
<path d="M5860 1825 c0 -5 58 -37 62 -33 2 1 18 -7 36 -17 46 -28 101 -103
157 -215 78 -155 78 -175 1 -175 -34 0 -51 6 -68 22 l-22 22 30 11 c16 6 35
13 42 15 19 7 14 21 -11 32 -17 8 -26 25 -36 66 -15 67 -71 187 -97 207 -15
11 -16 11 -6 0 17 -20 15 -86 -4 -104 -11 -12 -20 -13 -34 -6 -33 18 -20 -49
18 -96 39 -46 49 -79 32 -99 -16 -19 -63 -19 -99 0 -44 22 -105 29 -145 15
l-36 -12 33 -41 c94 -117 195 -304 217 -404 30 -132 125 -192 192 -121 56 60
119 217 133 331 6 49 4 63 -23 119 -36 77 -52 131 -52 180 0 95 -92 233 -185
277 -54 26 -65 26 -66 4 0 -15 -3 -14 -16 5 -13 19 -53 32 -53 17z m30 -485
c12 -8 11 -10 -7 -10 -13 0 -23 5 -23 10 0 13 11 13 30 0z m75 -50 c0 -18 -43
-25 -65 -10 -13 9 -13 11 0 20 22 15 65 8 65 -10z m32 -47 c2 -6 -7 -19 -21
-29 -21 -13 -29 -14 -41 -4 -23 19 -1 52 32 48 15 -2 28 -8 30 -15z"/>
<path d="M4356 1597 c-6 -21 -2 -43 18 -88 58 -134 18 -266 -96 -314 -71 -29
-120 -12 -142 50 -16 44 -22 -13 -22 -193 l1 -187 110 -5 110 -5 38 -40 c45
-49 44 -72 -5 -104 -33 -21 -38 -29 -38 -62 0 -26 -8 -47 -27 -69 -26 -31 -29
-32 -82 -26 -39 4 -61 13 -73 27 -20 23 -24 74 -7 84 6 4 7 14 3 24 -4 9 -9
31 -13 50 -3 19 -12 36 -19 39 -10 3 -12 -5 -6 -33 l7 -37 -49 6 c-229 27
-597 30 -1054 7 -172 -9 -417 2 -434 19 -6 6 -22 10 -36 10 -24 0 -25 3 -22
44 4 49 -11 86 -34 86 -12 0 -67 33 -84 50 -3 3 -17 11 -32 17 -41 18 -35 65
15 120 18 20 19 26 8 46 -22 40 -119 139 -132 135 -23 -8 -21 -28 4 -37 26
-10 73 -62 90 -98 8 -19 6 -28 -10 -46 -11 -12 -26 -32 -32 -44 -12 -23 -41
-32 -41 -13 0 6 -3 9 -7 8 -17 -6 -183 105 -183 121 0 9 11 33 25 53 31 45 31
45 0 50 -21 4 -29 -2 -50 -38 -14 -24 -29 -44 -33 -44 -5 0 -44 22 -87 49 -93
57 -99 56 -179 -28 -154 -166 -152 -430 6 -597 57 -60 108 -94 177 -119 160
-56 763 -61 926 -7 70 24 72 46 3 67 -48 14 -100 20 -371 43 l-88 7 28 32 28
31 335 11 c481 15 591 7 928 -73 212 -51 362 -54 1042 -27 237 10 502 -1 610
-24 41 -9 184 -47 317 -85 344 -98 503 -121 638 -90 27 6 115 18 195 25 221
22 253 31 393 107 114 61 438 115 1134 189 62 6 111 15 108 19 -2 4 -208 10
-457 13 -390 5 -983 29 -994 40 -2 2 17 30 41 63 40 53 45 65 45 113 0 49 -4
58 -49 115 -27 33 -58 70 -70 80 -21 19 -21 19 -21 -3 0 -11 -9 -54 -20 -94
-11 -39 -29 -135 -40 -212 -25 -175 -39 -235 -53 -235 -13 0 -77 37 -77 44 0
3 13 27 28 53 52 88 84 167 93 233 5 36 19 93 30 127 23 70 22 121 -3 137 -26
16 -33 0 -33 -79 0 -59 -4 -79 -21 -102 -26 -35 -98 -81 -141 -89 -29 -6 -33
-4 -33 15 0 12 -6 21 -15 21 -8 0 -15 -7 -15 -15 0 -22 -60 -85 -82 -85 -27 0
-60 19 -53 31 4 5 1 9 -5 9 -15 0 -24 -28 -13 -43 6 -6 13 -23 16 -36 l6 -24
-112 7 c-595 34 -1152 40 -1352 13 -71 -9 -152 -20 -180 -23 l-50 -6 -1 168
c-2 200 -36 532 -58 566 -9 13 -36 37 -60 53 -29 20 -46 39 -49 55 l-3 25 -8
-28z m2094 -877 c0 -5 -4 -10 -10 -10 -5 0 -10 5 -10 10 0 6 5 10 10 10 6 0
10 -4 10 -10z m24 -37 c8 -19 -8 -38 -23 -29 -16 10 -13 46 3 46 8 0 17 -8 20
-17z m-134 -22 c0 -6 -4 -13 -10 -16 -5 -3 -10 1 -10 9 0 9 5 16 10 16 6 0 10
-4 10 -9z m-18 -73 c-19 -19 -24 -21 -32 -8 -12 20 -3 30 28 30 l26 0 -22 -22z
m6 -55 c-4 -22 -48 -31 -48 -10 0 19 10 27 32 27 13 0 18 -6 16 -17z"/>
<path d="M6510 1185 c0 -2 12 -21 26 -42 23 -34 25 -35 19 -11 -5 21 -3 29 9
34 28 11 17 24 -19 24 -19 0 -35 -2 -35 -5z"/>
<path d="M6562 1070 c0 -19 2 -27 5 -17 2 9 2 25 0 35 -3 9 -5 1 -5 -18z"/>
<path d="M2483 1053 c-14 -5 -18 -63 -5 -63 14 0 32 23 32 41 0 21 -10 28 -27
22z"/>
</g>
</svg>
