<?xml version="1.0" standalone="no"?>
<!DOCTYPE svg PUBLIC "-//W3C//DTD SVG 20010904//EN"
 "http://www.w3.org/TR/2001/REC-SVG-20010904/DTD/svg10.dtd">
<svg version="1.0" xmlns="http://www.w3.org/2000/svg"
 width="820.000000pt" height="731.000000pt" viewBox="0 0 820.000000 731.000000"
 preserveAspectRatio="xMidYMid meet">

<g transform="translate(0.000000,731.000000) scale(0.100000,-0.100000)"
fill="#000000" stroke="none">
<path d="M821 6883 c-79 -39 -110 -158 -59 -226 13 -18 1472 -1479 3243 -3248
2607 -2604 3227 -3219 3258 -3229 73 -23 157 11 192 81 21 39 19 108 -4 145
-10 17 -622 633 -1360 1369 -738 736 -1339 1340 -1337 1342 6 6 165 -47 274
-93 279 -117 518 -274 739 -487 56 -54 108 -97 115 -95 6 2 209 209 449 459
l438 454 -67 68 c-144 148 -399 354 -592 479 -374 243 -805 423 -1231 513
-431 91 -845 105 -1292 44 l-159 -22 -261 262 c-197 197 -259 264 -248 270 24
15 303 80 454 106 271 46 432 59 732 59 483 -1 906 -66 1336 -208 632 -208
1145 -518 1666 -1003 l109 -102 425 441 c233 242 432 451 442 463 l17 23 -145
136 c-476 445 -981 784 -1545 1039 -567 256 -1137 407 -1790 473 -207 22 -781
25 -975 6 -588 -57 -1116 -181 -1604 -377 l-143 -57 -457 455 c-251 251 -469
461 -484 466 -41 16 -97 13 -136 -6z m3579 -793 c997 -59 1922 -380 2730 -946
135 -94 375 -283 462 -363 l53 -49 -80 -84 c-44 -45 -143 -149 -221 -229
l-141 -146 -94 79 c-696 588 -1522 954 -2412 1068 -643 82 -1307 28 -1907
-154 l-145 -44 -247 246 c-137 136 -248 250 -248 253 0 3 15 11 33 16 17 6 97
34 177 63 646 230 1357 331 2040 290z m126 -1940 c610 -78 1187 -321 1664
-700 142 -113 154 -72 -101 -338 l-221 -230 -96 76 c-382 299 -845 494 -1321
556 l-115 15 -308 308 c-169 169 -304 311 -300 315 15 15 259 27 451 22 107
-2 263 -13 347 -24z"/>
<path d="M1175 5592 c-270 -166 -503 -337 -745 -546 -133 -116 -321 -297 -318
-306 2 -5 200 -213 441 -464 l439 -456 126 119 c317 299 618 514 984 706 l137
71 -117 117 c-65 64 -121 117 -126 117 -14 0 -270 -145 -395 -225 -143 -90
-361 -251 -497 -367 l-102 -86 -179 186 c-98 103 -198 208 -221 233 l-41 45
111 95 c221 188 522 403 753 539 50 29 92 54 95 56 4 5 -221 234 -230 234 -3
0 -54 -31 -115 -68z"/>
<path d="M2610 4181 c-296 -135 -567 -299 -800 -486 -101 -80 -370 -324 -370
-335 0 -4 132 -143 293 -311 160 -167 360 -374 442 -460 l150 -156 98 91 c384
356 765 555 1233 646 52 10 98 21 102 24 3 4 -52 65 -123 137 -149 149 -125
141 -290 94 -314 -91 -689 -286 -933 -484 -34 -28 -66 -51 -71 -51 -12 0 -435
438 -439 454 -3 13 163 147 293 238 217 150 474 283 752 389 27 10 27 10 -97
134 -69 69 -127 125 -130 125 -3 -1 -52 -22 -110 -49z"/>
<path d="M3952 2569 c-216 -19 -405 -71 -609 -169 -184 -88 -317 -182 -492
-347 l-84 -79 662 -689 c364 -380 668 -690 674 -690 14 0 1107 1136 1107 1150
0 6 -179 189 -397 407 l-398 397 -75 10 c-116 16 -275 20 -388 10z m353 -330
c207 -27 406 -102 593 -226 l84 -55 -94 -97 c-52 -53 -248 -257 -437 -454
-189 -197 -347 -356 -351 -355 -6 3 -698 721 -818 849 l-53 57 48 34 c284 206
654 295 1028 247z"/>
</g>
</svg>
